<svg xmlns="http://www.w3.org/2000/svg" viewBox="0 0 512 376"><defs><style>.cls-1{fill:#f9f7f7;}</style></defs><title>Ativo 1</title><g id="Camada_2" data-name="Camada 2"><g id="Capa_1" data-name="Capa 1"><path class="cls-1" d="M452,0H60A60.07,60.07,0,0,0,0,60V316a60.07,60.07,0,0,0,60,60H452a60.07,60.07,0,0,0,60-60V60A60.07,60.07,0,0,0,452,0Zm20,316a20,20,0,0,1-20,20H60a20,20,0,0,1-20-20V60A20,20,0,0,1,60,40H452a20,20,0,0,1,20,20Z"/><polygon class="cls-1" points="468.6 24.94 256 183.07 43.4 24.94 19.52 57.03 256 232.93 492.48 57.03 468.6 24.94"/></g></g></svg>